<?xml version="1.0" encoding="utf-8"?>
<!-- Generator: Adobe Illustrator 16.0.0, SVG Export Plug-In . SVG Version: 6.00 Build 0)  -->
<!DOCTYPE svg PUBLIC "-//W3C//DTD SVG 1.1//EN" "http://www.w3.org/Graphics/SVG/1.1/DTD/svg11.dtd">
<svg version="1.1" id="svg-source" xmlns="http://www.w3.org/2000/svg" xmlns:xlink="http://www.w3.org/1999/xlink" x="0px" y="0px"
	 width="50px" height="50px" viewBox="184.5 264.5 50 50" enable-background="new 184.5 264.5 50 50" xml:space="preserve">
<g id="photo">
	<g>
		<path d="M209.5,285.068c-3.489,0-6.328,2.841-6.328,6.332c0,3.492,2.839,6.326,6.328,6.326c3.492,0,6.332-2.834,6.332-6.326
			C215.832,287.909,212.992,285.068,209.5,285.068z M209.5,296.584c-2.86,0-5.188-2.325-5.188-5.184
			c0-2.859,2.326-5.188,5.188-5.188c2.862,0,5.188,2.329,5.188,5.188C214.688,294.259,212.362,296.584,209.5,296.584z"/>
		<path d="M224.929,281.207h-9.339l-1.739-3.479c-0.097-0.192-0.294-0.317-0.511-0.317h-7.678c-0.216,0-0.414,0.125-0.513,0.317
			l-1.737,3.479h-3.011v-1.348c0-0.315-0.256-0.573-0.571-0.573h-3.838c-0.316,0-0.572,0.258-0.572,0.573v1.348h-1.35
			c-0.314,0-0.57,0.257-0.57,0.572v19.236c0,0.317,0.256,0.572,0.57,0.572h30.857c0.314,0,0.572-0.255,0.572-0.572v-19.236
			C225.5,281.464,225.244,281.207,224.929,281.207z M196.562,280.432h2.698v0.775h-2.698V280.432z M224.357,300.445h-29.715v-18.094
			h1.35h3.838h3.935c0.217,0,0.415-0.123,0.511-0.317l1.74-3.479h6.971l1.741,3.479c0.097,0.194,0.294,0.317,0.509,0.317h9.122
			L224.357,300.445L224.357,300.445z"/>
	</g>
</g>
</svg>
