<?xml version="1.0" encoding="utf-8"?>
<!-- Generator: Adobe Illustrator 16.0.0, SVG Export Plug-In . SVG Version: 6.00 Build 0)  -->
<!DOCTYPE svg PUBLIC "-//W3C//DTD SVG 1.1//EN" "http://www.w3.org/Graphics/SVG/1.1/DTD/svg11.dtd">
<svg version="1.1" id="svg-source" xmlns="http://www.w3.org/2000/svg" xmlns:xlink="http://www.w3.org/1999/xlink" x="0px" y="0px"
	 width="50px" height="50px" viewBox="84.5 164.5 50 50" enable-background="new 84.5 164.5 50 50" xml:space="preserve">
<g id="tag">
	<g>
		<path fill="#02F6A1" d="M109.501,173.5c-5.553,0-10.068,4.517-10.068,10.067c0,4.068,4.008,11.777,7.373,17.527
			c1.249,2.135,2.151,3.557,2.151,3.557l0.544,0.85l0.541-0.85c0,0,0.903-1.422,2.151-3.557c3.363-5.75,7.375-13.459,7.375-17.527
			C119.568,178.017,115.051,173.5,109.501,173.5z M111.084,200.445c-0.648,1.111-1.204,2.025-1.583,2.644
			c-0.382-0.616-0.937-1.53-1.585-2.644c-2.69-4.598-7.199-12.899-7.199-16.878c0-4.842,3.939-8.781,8.784-8.781
			c4.842,0,8.781,3.939,8.781,8.781C118.282,187.546,113.771,195.848,111.084,200.445z"/>
		<path fill="#02F6A1" d="M109.501,177.271c-3.473,0-6.298,2.825-6.298,6.297c0,3.475,2.825,6.297,6.298,6.297
			c3.472,0,6.296-2.822,6.296-6.297C115.797,180.096,112.973,177.271,109.501,177.271z M109.501,188.579
			c-2.765,0-5.013-2.246-5.013-5.012c0-2.762,2.248-5.01,5.013-5.01c2.763,0,5.011,2.248,5.011,5.01
			C114.512,186.333,112.264,188.579,109.501,188.579z"/>
	</g>
</g>
</svg>
