<?xml version="1.0" encoding="utf-8"?>
<!-- Generator: Adobe Illustrator 16.0.0, SVG Export Plug-In . SVG Version: 6.00 Build 0)  -->
<!DOCTYPE svg PUBLIC "-//W3C//DTD SVG 1.1//EN" "http://www.w3.org/Graphics/SVG/1.1/DTD/svg11.dtd">
<svg version="1.1" id="svg-source" xmlns="http://www.w3.org/2000/svg" xmlns:xlink="http://www.w3.org/1999/xlink" x="0px" y="0px"
	 width="50px" height="50px" viewBox="84.5 264.5 50 50" enable-background="new 84.5 264.5 50 50" xml:space="preserve">
<g id="globe">
	<g>
		<path fill="#02F6A1" d="M122.24,293.354l-2.133,2.133l-1.754-1.754c2.733-3.041,3.459-7.23,2.176-10.898l0,0v-0.002
			c-0.525-1.497-1.35-2.906-2.543-4.102c-2.06-2.062-4.807-3.198-7.727-3.198c-0.205,0-0.402,0.046-0.607,0.059
			c-0.062,0.007-0.123-0.007-0.182,0.017c-2.422,0.176-4.677,1.127-6.482,2.756l-1.754-1.756l2.129-2.129
			c0.224-0.225,0.224-0.586,0-0.812c-0.225-0.224-0.59-0.224-0.813,0l-2.532,2.535c-5.65,5.655-5.65,14.853,0,20.502
			c2.713,2.713,6.246,4.11,9.81,4.22c-0.211,1.082-0.953,3.432-3.462,3.432h-0.717c-0.317,0-0.575,0.258-0.575,0.571
			c0,0.315,0.258,0.573,0.575,0.573h9.236c0.317,0,0.577-0.258,0.577-0.573c0-0.313-0.26-0.571-0.577-0.571h-5.562
			c1.024-0.983,1.499-2.383,1.663-3.446c3.467-0.173,6.885-1.562,9.527-4.204l2.539-2.539c0.225-0.225,0.225-0.585,0-0.812
			C122.828,293.13,122.463,293.13,122.24,293.354z M117.174,293.366c-1.847,1.847-4.298,2.864-6.911,2.864
			c-2.606,0-5.063-1.019-6.908-2.864c-1.155-1.154-1.918-2.543-2.373-4.007l1.015-0.311l1.33,0.969
			c0.103,0.072,0.222,0.108,0.339,0.108c0.162,0,0.326-0.073,0.438-0.206l1.974-2.316c0.149-0.172,0.187-0.41,0.093-0.617
			c-0.093-0.203-0.298-0.336-0.521-0.336h-1.403l-0.736-0.51l-0.045-0.951l0.931-0.647c0.15-0.106,0.244-0.282,0.244-0.472v-3.398
			c0-0.316-0.258-0.572-0.572-0.572H102.9c0.158-0.185,0.279-0.383,0.453-0.556c1.48-1.481,3.357-2.399,5.389-2.715l-0.654,1.423
			c-0.096,0.216-0.055,0.468,0.109,0.637l1.087,1.135c0.049,0.054,0.106,0.093,0.169,0.125l2.223,1.045
			c0.17,0.076,0.355,0.068,0.512-0.012c0,0,0.547-0.287,0.893-0.502c0.339,0,1.417,0.241,2.345,0.497l1.722,2.03
			c0.108,0.126,0.269,0.201,0.438,0.201h1.923C120.617,286.801,119.867,290.677,117.174,293.366z M102.013,281.245h1.479v2.528
			l-0.947,0.656c-0.162,0.112-0.255,0.301-0.24,0.498l0.067,1.553c0.009,0.181,0.103,0.343,0.249,0.446l1.115,0.771
			c0.098,0.065,0.212,0.101,0.33,0.101h0.313l-0.812,0.975l-1.133-0.817c-0.146-0.106-0.334-0.134-0.504-0.085l-1.262,0.386
			C100.226,285.872,100.681,283.359,102.013,281.245z M117.174,279.544c0.808,0.808,1.406,1.738,1.874,2.716h-1.201l-1.662-1.959
			c-0.074-0.087-0.17-0.148-0.279-0.181c-2.844-0.808-3.186-0.58-3.374-0.454c-0.166,0.111-0.433,0.26-0.623,0.364l-1.869-0.876
			l-0.744-0.777l0.771-1.677c0.064-0.003,0.129-0.021,0.193-0.021C112.874,276.682,115.328,277.695,117.174,279.544z
			 M100.462,277.464l1.713,1.716c-0.316,0.35-0.619,0.701-0.882,1.08c-0.011,0.012-0.017,0.024-0.03,0.038
			c-2.908,4.25-2.494,10.109,1.278,13.882c2.063,2.062,4.806,3.199,7.722,3.199c2.725,0,5.272-1.023,7.278-2.835l1.712,1.713
			c-5.229,4.793-13.359,4.699-18.425-0.364C95.765,290.83,95.668,282.695,100.462,277.464z"/>
		<path fill="#02F6A1" d="M112.84,287.859c-0.132-0.174-0.358-0.252-0.573-0.215c-0.215,0.043-0.39,0.211-0.438,0.424
			c-0.097,0.375-0.207,0.797-0.31,1.136c-0.357-0.274-0.902-0.652-1.727-1.175l-2.126-1.297c-0.147-0.092-0.343-0.105-0.504-0.041
			c-0.169,0.063-0.295,0.203-0.347,0.375l-0.484,1.699l-1.582,1.979c-0.079,0.103-0.123,0.229-0.123,0.358v1.965
			c0,0.263,0.178,0.492,0.432,0.557l2.935,0.725h4.392c0.112,0,0.223-0.037,0.314-0.097l1.814-1.188
			c0.158-0.105,0.254-0.287,0.254-0.479v-1.996c0-0.126-0.039-0.246-0.111-0.348L112.84,287.859z M113.621,292.273l-1.409,0.925
			l-4.077,0.018l-2.361-0.594v-1.315l1.529-1.91c0.047-0.061,0.082-0.129,0.104-0.203l0.31-1.082l1.473,0.895
			c0.856,0.544,1.875,1.255,1.98,1.346c0.079,0.235,0.325,0.426,0.572,0.426c0.383,0,0.568-0.141,0.896-1.283l0.982,1.288V292.273z"
			/>
		<path fill="#02F6A1" d="M118.39,283.703h-2.127c-0.316,0-0.574,0.259-0.574,0.574v2.176c0,0.182,0.088,0.349,0.229,0.46
			c0.099,0.073,0.222,0.112,0.345,0.112c0.053,0,0.107-0.004,0.162-0.021l2.125-0.619c0.244-0.069,0.414-0.295,0.414-0.552v-1.557
			C118.964,283.962,118.707,283.703,118.39,283.703z M117.814,285.404l-0.978,0.283v-0.836h0.978V285.404z"/>
	</g>
</g>
</svg>
