<?xml version="1.0" encoding="utf-8"?>
<!-- Generator: Adobe Illustrator 16.0.0, SVG Export Plug-In . SVG Version: 6.00 Build 0)  -->
<!DOCTYPE svg PUBLIC "-//W3C//DTD SVG 1.1//EN" "http://www.w3.org/Graphics/SVG/1.1/DTD/svg11.dtd">
<svg version="1.1" id="svg-source" xmlns="http://www.w3.org/2000/svg" xmlns:xlink="http://www.w3.org/1999/xlink" x="0px" y="0px"
	 width="50px" height="50px" viewBox="184.5 164.5 50 50" enable-background="new 184.5 164.5 50 50" xml:space="preserve">
<g id="mail">
	<g>
		<path fill="#02F6A1" d="M225.5,179.86c0-0.067-0.049-0.112-0.074-0.174c-0.019-0.059-0.008-0.124-0.049-0.178
			c-0.011-0.012-0.023-0.01-0.033-0.018c-0.049-0.058-0.117-0.074-0.186-0.108c-0.068-0.031-0.123-0.077-0.197-0.081
			c-0.014-0.002-0.021-0.016-0.035-0.016h-30.852c-0.014,0-0.021,0.014-0.035,0.016c-0.076,0.005-0.131,0.05-0.197,0.081
			c-0.068,0.035-0.137,0.053-0.189,0.108c-0.004,0.009-0.021,0.007-0.031,0.018c-0.039,0.054-0.028,0.119-0.047,0.179
			c-0.025,0.061-0.074,0.106-0.074,0.173v19.28c0,0.067,0.049,0.112,0.074,0.173c0.019,0.061,0.008,0.126,0.047,0.179
			c0.01,0.012,0.021,0.007,0.031,0.017c0.104,0.121,0.25,0.206,0.422,0.206h30.852c0.172,0,0.314-0.085,0.422-0.206
			c0.01-0.01,0.02-0.005,0.029-0.017c0.041-0.053,0.03-0.118,0.049-0.179c0.025-0.061,0.074-0.106,0.074-0.173V179.86z
			 M194.648,181.031l10.922,8.47l-10.922,8.468V181.031z M212.148,189.043c-0.004,0.001-0.008,0-0.008,0.001l-2.496,1.94
			l-0.143,0.11l-0.12-0.092l-2.519-1.958c-0.006-0.001-0.008,0-0.014-0.001l-11.1-8.609h27.494L212.148,189.043z M206.51,190.227
			l2.641,2.046c0.058,0.046,0.132,0.048,0.197,0.068c0.037,0.01,0.067,0.036,0.111,0.038c0.018,0.002,0.027,0.017,0.044,0.017
			c0.015,0,0.024-0.015,0.041-0.015c0.041-0.004,0.071-0.026,0.108-0.038c0.068-0.02,0.144-0.024,0.203-0.07l2.641-2.046l10.75,8.34
			h-27.494L206.51,190.227z M213.432,189.501l10.92-8.47v16.938L213.432,189.501z"/>
	</g>
</g>
</svg>
